<svg xmlns="http://www.w3.org/2000/svg" width="22.906" height="21.489" viewBox="0 0 22.906 21.489"><defs><style>.a{fill:#fff;}</style></defs><g transform="translate(0 -15.845)"><g transform="translate(0 15.845)"><g transform="translate(0 0)"><path class="a" d="M0,15.845v18.8H7.352v1.344H6.008v1.342H16.9V35.991H15.554V34.647h7.352v-18.8ZM14.212,35.991H8.694V34.647h5.518v1.344ZM21.564,33.3H1.342V30.617H21.564V33.3Zm0-4.03H1.342V17.187H21.564V29.275Z" transform="translate(0 -15.845)"/></g></g><g transform="translate(4.8 19.856)"><path class="a" d="M111.614,106.447l-.949-.949-3.375,3.375,3.375,3.375.949-.949-2.426-2.426Z" transform="translate(-107.29 -105.498)"/></g><g transform="translate(13.782 19.856)"><path class="a" d="M309.006,105.5l-.949.949,2.426,2.426-2.426,2.426.949.949,3.375-3.375Z" transform="translate(-308.057 -105.498)"/></g><g transform="translate(10.016 19.184)"><g transform="translate(0 0)"><rect class="a" width="7.986" height="1.342" transform="matrix(0.195, -0.981, 0.981, 0.195, 0, 7.833)"/></g></g></g></svg>