<svg xmlns="http://www.w3.org/2000/svg" width="34.211" height="34.21" viewBox="0 0 34.211 34.21"><defs><style>.a{fill:#fff;}</style></defs><path class="a" d="M17.105,0A17.105,17.105,0,1,0,34.211,17.105,17.105,17.105,0,0,0,17.105,0Zm0,32.072A14.967,14.967,0,1,1,32.072,17.105,14.967,14.967,0,0,1,17.105,32.072Z"/><g transform="translate(9.503 9.503)"><g transform="translate(0)"><circle class="a" cx="2.5" cy="2.5" r="2.5" transform="translate(-0.398 -0.398)"/></g></g><g transform="translate(20.146 9.503)"><g transform="translate(0)"><circle class="a" cx="2.5" cy="2.5" r="2.5" transform="translate(-0.041 -0.398)"/></g></g><g transform="translate(7.484 17.105)"><path class="a" d="M129.105,256a7.484,7.484,0,0,1-14.967,0H112a9.622,9.622,0,0,0,19.243,0Z" transform="translate(-112 -256)"/></g></svg>