<svg xmlns="http://www.w3.org/2000/svg" width="6.151" height="12.176" viewBox="0 0 6.151 12.176"><defs><style>.a{fill:#fff;}</style></defs><path class="a" d="M76.9,6.485h1.335V11.98a.2.2,0,0,0,.2.2h2.263a.2.2,0,0,0,.2-.2V6.511h1.534a.2.2,0,0,0,.2-.174l.233-2.023a.2.2,0,0,0-.2-.219H80.89V2.827c0-.382.206-.576.612-.576h1.156a.2.2,0,0,0,.2-.2V.2a.2.2,0,0,0-.2-.2H80.992a3.052,3.052,0,0,0-2,.752,2.093,2.093,0,0,0-.7,1.86V4.1H76.9a.2.2,0,0,0-.2.2v2A.2.2,0,0,0,76.9,6.485Z" transform="translate(-76.703)"/></svg>