<svg xmlns="http://www.w3.org/2000/svg" width="41.358" height="31.503" viewBox="0 0 41.358 31.503"><defs><style>.a{fill:#fff;}</style></defs><path class="a" d="M40.146,69.078H35.3a1.212,1.212,0,1,0,0,2.423h1.921l-5.9,5.9a8.511,8.511,0,0,0-4.363-5.744,6.058,6.058,0,1,0-7.864,0,8.521,8.521,0,0,0-4.22,5.171q-.228-.261-.477-.505a8.488,8.488,0,0,0-1.975-1.437,6.058,6.058,0,1,0-7.867,0A8.49,8.49,0,0,0,0,82.406v8.886A1.212,1.212,0,0,0,1.212,92.5h9.855a1.211,1.211,0,0,0,.857-.355l8.837-8.836,3.182,3.182a1.212,1.212,0,0,0,1.714,0L38.935,73.215v1.921a1.212,1.212,0,0,0,2.423,0V70.289a1.212,1.212,0,0,0-1.212-1.212Zm-20.76-2.019a3.635,3.635,0,1,1,3.635,3.635A3.639,3.639,0,0,1,19.387,67.058ZM4.847,70.289a3.635,3.635,0,1,1,3.635,3.635A3.639,3.639,0,0,1,4.847,70.289Zm5.718,19.79H2.423V82.406a6.054,6.054,0,0,1,12.106-.181,1.242,1.242,0,0,0,.01.126V86.1ZM24.8,83.924l-3.182-3.182a1.212,1.212,0,0,0-1.714,0l-2.94,2.94V79.175a6.058,6.058,0,0,1,12.117,0v.467Z" transform="translate(0 -61)"/></svg>