<svg xmlns="http://www.w3.org/2000/svg" width="11.953" height="11.953" viewBox="0 0 11.953 11.953"><defs><style>.a{fill:#fff;}</style></defs><path class="a" d="M8.218,0H3.735A3.736,3.736,0,0,0,0,3.735V8.218a3.736,3.736,0,0,0,3.735,3.735H8.218a3.736,3.736,0,0,0,3.735-3.735V3.735A3.736,3.736,0,0,0,8.218,0Zm2.615,8.218a2.618,2.618,0,0,1-2.615,2.615H3.735A2.618,2.618,0,0,1,1.121,8.218V3.735A2.618,2.618,0,0,1,3.735,1.121H8.218a2.618,2.618,0,0,1,2.615,2.615Z"/><g transform="translate(2.988 2.988)"><path class="a" d="M130.988,128a2.988,2.988,0,1,0,2.988,2.988A2.988,2.988,0,0,0,130.988,128Zm0,4.856a1.868,1.868,0,1,1,1.868-1.868A1.87,1.87,0,0,1,130.988,132.856Z" transform="translate(-128 -128)"/></g><g transform="translate(8.791 2.366)"><circle class="a" cx="0.398" cy="0.398" r="0.398"/></g></svg>