<svg xmlns="http://www.w3.org/2000/svg" width="24" height="24" viewBox="0 0 24 24"><defs><style>.a{fill:#fff;}</style></defs><path class="a" d="M19.714,0H4.286A4.291,4.291,0,0,0,0,4.286V19.714A4.291,4.291,0,0,0,4.286,24H19.714A4.291,4.291,0,0,0,24,19.714V4.286A4.291,4.291,0,0,0,19.714,0ZM11.143,22.286H4.286a2.571,2.571,0,0,1-2.571-2.571V4.286A2.571,2.571,0,0,1,4.286,1.714h6.857V22.286Zm11.143-2.571a2.571,2.571,0,0,1-2.571,2.571H12.857V12.857h9.429Zm0-8.571H12.857V1.714h6.857a2.571,2.571,0,0,1,2.571,2.571v6.857Z"/></svg>