<svg xmlns="http://www.w3.org/2000/svg" width="11.084" height="11.06" viewBox="0 0 11.084 11.06"><defs><style>.a{fill:#fff;}</style></defs><path class="a" d="M7.331,99.73H5.106a.179.179,0,0,0-.179.179v7.149a.179.179,0,0,0,.179.179H7.331a.179.179,0,0,0,.179-.179V99.909A.179.179,0,0,0,7.331,99.73Z" transform="translate(-4.751 -96.176)"/><path class="a" d="M1.468.341A1.467,1.467,0,1,0,2.936,1.808,1.469,1.469,0,0,0,1.468.341Z" transform="translate(0 -0.341)"/><path class="a" d="M110.62,94.761a2.614,2.614,0,0,0-1.955.821v-.464a.179.179,0,0,0-.179-.179h-2.131a.179.179,0,0,0-.179.179v7.149a.179.179,0,0,0,.179.179h2.22a.179.179,0,0,0,.179-.179V98.729c0-1.192.324-1.656,1.155-1.656.9,0,.977.744.977,1.718v3.476a.179.179,0,0,0,.179.179h2.221a.179.179,0,0,0,.179-.179V98.345C113.464,96.573,113.126,94.761,110.62,94.761Z" transform="translate(-102.38 -91.385)"/></svg>