<svg xmlns="http://www.w3.org/2000/svg" width="34.21" height="34.21" viewBox="0 0 34.21 34.21"><defs><style>.a{fill:#fff;}</style></defs><path class="a" d="M4.811,0A4.811,4.811,0,1,0,9.622,4.811,4.816,4.816,0,0,0,4.811,0Zm0,7.484A2.673,2.673,0,1,1,7.484,4.811,2.676,2.676,0,0,1,4.811,7.484Z"/><path class="a" d="M4.811,184a4.811,4.811,0,1,0,4.811,4.811A4.816,4.816,0,0,0,4.811,184Zm0,7.484a2.673,2.673,0,1,1,2.673-2.673A2.676,2.676,0,0,1,4.811,191.484Z" transform="translate(0 -171.706)"/><path class="a" d="M4.811,368a4.811,4.811,0,1,0,4.811,4.811A4.816,4.816,0,0,0,4.811,368Zm0,7.484a2.673,2.673,0,1,1,2.673-2.673A2.676,2.676,0,0,1,4.811,375.484Z" transform="translate(0 -343.411)"/><path class="a" d="M180.811,9.622H193.64a4.811,4.811,0,0,0,0-9.622H180.811a4.811,4.811,0,1,0,0,9.622Zm0-7.484H193.64a2.673,2.673,0,0,1,0,5.345H180.811a2.673,2.673,0,1,1,0-5.345Z" transform="translate(-164.24)"/><path class="a" d="M193.64,184H180.811a4.811,4.811,0,1,0,0,9.622H193.64a4.811,4.811,0,0,0,0-9.622Zm0,7.484H180.811a2.673,2.673,0,1,1,0-5.345H193.64a2.673,2.673,0,0,1,0,5.345Z" transform="translate(-164.24 -171.706)"/><path class="a" d="M193.64,368H180.811a4.811,4.811,0,1,0,0,9.622H193.64a4.811,4.811,0,0,0,0-9.622Zm0,7.484H180.811a2.673,2.673,0,1,1,0-5.345H193.64a2.673,2.673,0,0,1,0,5.345Z" transform="translate(-164.24 -343.411)"/></svg>