<svg xmlns="http://www.w3.org/2000/svg" width="38.732" height="34.105" viewBox="0 0 38.732 34.105"><defs><style>.a{fill:#fff;}</style></defs><g transform="translate(0 -30.584)"><path class="a" d="M38.164,30.735a1.135,1.135,0,0,0-1.136,0L22.966,38.9a13.178,13.178,0,0,0-7.2,0L1.7,30.737a1.135,1.135,0,0,0-1.7.981v13.7a1.135,1.135,0,0,0,.565.981l5.781,3.358a13.143,13.143,0,1,0,26.041,0L38.168,46.4a1.135,1.135,0,0,0,.565-.981v-13.7A1.135,1.135,0,0,0,38.164,30.735Zm-1.7,2.955v4.225L28.775,42.38a13.224,13.224,0,0,0-3.156-2.391Zm-34.193,0,10.844,6.3A13.221,13.221,0,0,0,9.957,42.38L2.269,37.915V33.69Zm0,11.074V40.539L8.5,44.159A13.107,13.107,0,0,0,6.88,47.442Zm17.1,17.656A10.873,10.873,0,1,1,30.24,51.546,10.886,10.886,0,0,1,19.366,62.42ZM31.852,47.442a13.1,13.1,0,0,0-1.621-3.283l6.232-3.62v4.225Z"/><path class="a" d="M158.328,209.024l-1.413-4.347a1.135,1.135,0,0,0-2.158,0l-1.413,4.347h-4.571a1.135,1.135,0,0,0-.667,2.053l3.7,2.687-1.412,4.347a1.135,1.135,0,0,0,1.746,1.269l3.7-2.687,3.7,2.687a1.135,1.135,0,0,0,1.746-1.269l-1.412-4.347,3.7-2.687a1.135,1.135,0,0,0-.667-2.053h-4.571Zm-.873,4.657.588,1.81-1.539-1.118a1.134,1.134,0,0,0-1.334,0l-1.539,1.118.588-1.81a1.135,1.135,0,0,0-.412-1.269l-1.539-1.118h1.9a1.135,1.135,0,0,0,1.079-.784l.588-1.81.588,1.81a1.135,1.135,0,0,0,1.079.784h1.9l-1.539,1.118A1.135,1.135,0,0,0,157.455,213.681Z" transform="translate(-136.471 -160.198)"/></g></svg>