<svg xmlns="http://www.w3.org/2000/svg" width="24.001" height="25.601" viewBox="0 0 24.001 25.601"><defs><style>.a{fill:#fff;}</style></defs><g transform="translate(-15.999 0)"><path class="a" d="M19.007,23.921,17.691,9a1.739,1.739,0,0,1,.722-1.574,3.145,3.145,0,0,1-.257-.376,3.075,3.075,0,0,1-.01-3.1L20.191.378a.75.75,0,0,1,1.3,0l2.045,3.578a3.073,3.073,0,0,1-.011,3.1,2.96,2.96,0,0,1-.256.375A1.753,1.753,0,0,1,23.993,9L22.677,23.921a1.842,1.842,0,0,1-3.67,0Zm1.494-.132a.342.342,0,0,0,.682,0l.9-10.188H19.6ZM19.25,8.681a.249.249,0,0,0-.065.191L19.47,12.1h2.744L22.5,8.872A.25.25,0,0,0,22.25,8.6H19.435A.25.25,0,0,0,19.25,8.681Zm.2-3.982a1.6,1.6,0,1,0,2.786,0L20.842,2.262ZM8.741,25.277a12.3,12.3,0,0,1-6.248-4.585A13.445,13.445,0,0,1,0,12.8,13.44,13.44,0,0,1,2.493,4.91,12.3,12.3,0,0,1,8.741.324a6.947,6.947,0,0,1,3.3-.218,6.287,6.287,0,0,1,3,1.42A3.681,3.681,0,0,1,16.4,5.318a11.819,11.819,0,0,1-1.782,3.541c-.275.429-.561.872-.819,1.311a5.2,5.2,0,0,0,0,5.261c.258.439.544.883.819,1.311A11.861,11.861,0,0,1,16.4,20.283a3.682,3.682,0,0,1-1.361,3.792,6.287,6.287,0,0,1-3,1.42,6.771,6.771,0,0,1-1.193.105A7.035,7.035,0,0,1,8.741,25.277ZM9.19,1.756A11.478,11.478,0,0,0,1.5,12.8,11.477,11.477,0,0,0,9.19,23.846a5.052,5.052,0,0,0,4.864-.9c1.691-1.464.879-2.928-.7-5.387-.283-.441-.577-.9-.851-1.363a6.7,6.7,0,0,1,0-6.781c.274-.465.567-.922.851-1.363,1.581-2.46,2.393-3.923.7-5.387a4.859,4.859,0,0,0-3.2-1.164A5.555,5.555,0,0,0,9.19,1.756ZM7.5,19.362a2.25,2.25,0,1,1,2.25,2.25A2.253,2.253,0,0,1,7.5,19.362Zm1.5,0a.75.75,0,1,0,.75-.751A.751.751,0,0,0,9,19.362Zm-5.5-5.94a2.25,2.25,0,1,1,2.251,2.25A2.253,2.253,0,0,1,3.5,13.422Zm1.5,0a.75.75,0,1,0,.751-.75A.751.751,0,0,0,5,13.422ZM7.5,6.24A2.25,2.25,0,1,1,9.75,8.491,2.253,2.253,0,0,1,7.5,6.24Zm1.5,0a.75.75,0,1,0,.75-.75A.751.751,0,0,0,9,6.24Z" transform="translate(16 0)"/></g></svg>