<svg xmlns="http://www.w3.org/2000/svg" width="46.832" height="41.337" viewBox="0 0 46.832 41.337"><defs><style>.a{opacity:0.37;}.b{fill:#2a2273;}</style></defs><g class="a" transform="translate(0.001 -57.197)"><path class="b" d="M573.916,57.2h-14.6a2.4,2.4,0,0,0-2.4,2.4V74.2a2.4,2.4,0,0,0,2.4,2.4H566.3a15.891,15.891,0,0,1-2.661,9.184,14.468,14.468,0,0,1-6.018,4.505,2.4,2.4,0,0,0-1.191,3.223l1.729,3.65a2.4,2.4,0,0,0,3.127,1.172,26.7,26.7,0,0,0,8.055-5.226,20.276,20.276,0,0,0,5.49-8.737,47.33,47.33,0,0,0,1.484-13.295V59.6A2.4,2.4,0,0,0,573.916,57.2Z" transform="translate(-529.486)"/><path class="b" d="M5.092,98.326a27.151,27.151,0,0,0,8.016-5.216,20.168,20.168,0,0,0,5.524-8.7,47.273,47.273,0,0,0,1.484-13.329V59.6a2.4,2.4,0,0,0-2.4-2.4H3.113a2.4,2.4,0,0,0-2.4,2.4V74.2a2.4,2.4,0,0,0,2.4,2.4H10.1a15.891,15.891,0,0,1-2.661,9.184A14.468,14.468,0,0,1,1.422,90.29,2.4,2.4,0,0,0,.231,93.513l1.724,3.641A2.408,2.408,0,0,0,5.092,98.326Z" transform="translate(0 0)"/></g></svg>