<svg xmlns="http://www.w3.org/2000/svg" width="13.058" height="23.265" viewBox="0 0 13.058 23.265"><defs><style>.a{fill:#fff;}</style></defs><g transform="translate(0)"><path class="a" d="M78.993,52.89a.451.451,0,0,1-.089-.009.483.483,0,0,1-.085-.026.467.467,0,0,1-.078-.042.459.459,0,0,1-.069-.056.483.483,0,0,1-.056-.069.492.492,0,0,1-.042-.079.431.431,0,0,1-.026-.085.441.441,0,0,1,0-.178.431.431,0,0,1,.026-.085.483.483,0,0,1,.042-.078.437.437,0,0,1,.125-.125.449.449,0,0,1,.164-.068.458.458,0,0,1,.41.124.449.449,0,0,1,.056.069.47.47,0,0,1,.042.078.453.453,0,0,1,0,.348.479.479,0,0,1-.042.079.484.484,0,0,1-.056.069A.458.458,0,0,1,78.993,52.89Zm0,0" transform="translate(-74.97 -49.62)"/><path class="a" d="M11,0H2.061A2.063,2.063,0,0,0,0,2.06V21.2a2.063,2.063,0,0,0,2.06,2.06H11a2.063,2.063,0,0,0,2.06-2.06V2.06A2.063,2.063,0,0,0,11,0ZM2.061.909H11A1.153,1.153,0,0,1,12.15,2.06v.3H6.2a.454.454,0,0,0,0,.909H12.15V19.54H.909V3.271h1.2a.454.454,0,1,0,0-.909H.909v-.3A1.153,1.153,0,0,1,2.061.909ZM12.15,21.2A1.153,1.153,0,0,1,11,22.356H2.061A1.153,1.153,0,0,1,.909,21.2v-.756H12.15Zm0,0"/><path class="a" d="M45.911,139.166H42.7a.454.454,0,0,1-.454-.454v-3.207a.454.454,0,0,1,.454-.454h3.207a.454.454,0,0,1,.454.454v3.207A.454.454,0,0,1,45.911,139.166Zm-2.752-.909h2.3v-2.3h-2.3Zm0,0" transform="translate(-40.33 -128.914)"/><path class="a" d="M158.22,139.166h-3.207a.454.454,0,0,1-.454-.454v-3.207a.454.454,0,0,1,.454-.454h3.207a.454.454,0,0,1,.454.454v3.207A.454.454,0,0,1,158.22,139.166Zm-2.752-.909h2.3v-2.3h-2.3Zm0,0" transform="translate(-147.535 -128.914)"/><path class="a" d="M45.911,250.471H42.7a.454.454,0,0,1-.454-.454V246.81a.454.454,0,0,1,.454-.454h3.207a.454.454,0,0,1,.454.454v3.207A.454.454,0,0,1,45.911,250.471Zm-2.752-.909h2.3v-2.3h-2.3Zm0,0" transform="translate(-40.33 -235.161)"/><path class="a" d="M158.22,250.471h-3.207a.454.454,0,0,1-.454-.454V246.81a.454.454,0,0,1,.454-.454h3.207a.454.454,0,0,1,.454.454v3.207A.454.454,0,0,1,158.22,250.471Zm-2.752-.909h2.3v-2.3h-2.3Zm0,0" transform="translate(-147.535 -235.161)"/><path class="a" d="M122.93,461.913h-1.121a.454.454,0,0,1,0-.909h1.121a.454.454,0,1,1,0,.909Zm0,0" transform="translate(-115.84 -440.056)"/><path class="a" d="M104.144,361.909h-3a.454.454,0,1,1,0-.909h3a.454.454,0,1,1,0,.909Zm0,0" transform="translate(-96.115 -344.596)"/></g></svg>