<svg xmlns="http://www.w3.org/2000/svg" width="21.599" height="24.558" viewBox="0 0 21.599 24.558"><defs><style>.a{fill:#fff;}</style></defs><g transform="translate(-30.849)"><g transform="translate(30.849 0.916)"><g transform="translate(0)"><path class="a" d="M50.809,27.866l-8.138-8.138a2.158,2.158,0,0,0-3.315,2.733l-.011.057a15.056,15.056,0,0,1-4.131,7.718l-3.733,3.733a2.157,2.157,0,0,0,0,3.052l2.034,2.034a2.157,2.157,0,0,0,3.052,0l.509-.509,3.56,3.56a2.158,2.158,0,0,0,3.052-3.052L42.163,37.53l.509-.509a2.157,2.157,0,0,0,0-3.052l-.346-.346a15.058,15.058,0,0,1,5.693-2.432l.057-.011a2.16,2.16,0,0,0,2.733-.263h0A2.16,2.16,0,0,0,50.809,27.866ZM35.551,38.038a.719.719,0,0,1-1.017,0L32.5,36a.719.719,0,0,1,0-1.017l3.56-3.56,3.052,3.052Zm7.12,2.034a.719.719,0,0,1-1.017,1.017l-3.56-3.56,1.017-1.017ZM40.128,35.5c.216-.216.54-.547,1.051-.984l.475.475a.719.719,0,0,1,0,1.017l-.509.509Zm.031-2-3.113-3.113a16.472,16.472,0,0,0,3.5-6.67l6.281,6.281A16.471,16.471,0,0,0,40.159,33.491ZM49.791,29.9a.719.719,0,0,1-1.017,0l-8.138-8.138a.719.719,0,0,1,1.017-1.017l8.138,8.138A.72.72,0,0,1,49.791,29.9Z" transform="translate(-30.849 -19.098)"/></g></g><g transform="translate(34.323 15.577)"><path class="a" d="M105.511,324.973a.719.719,0,0,0-1.017,0l-1.017,1.017a.719.719,0,0,0,1.017,1.017l1.017-1.017A.719.719,0,0,0,105.511,324.973Z" transform="translate(-103.266 -324.762)"/></g><g transform="translate(45.255)"><path class="a" d="M331.913,0a.719.719,0,0,0-.719.719V2.158a.719.719,0,0,0,1.439,0V.719A.719.719,0,0,0,331.913,0Z" transform="translate(-331.194)"/></g><g transform="translate(49.571 5.754)"><path class="a" d="M423.327,119.966h-1.439a.719.719,0,0,0,0,1.439h1.439a.719.719,0,0,0,0-1.439Z" transform="translate(-421.169 -119.966)"/></g><g transform="translate(48.132 1.439)"><path class="a" d="M393.844,30.2a.719.719,0,0,0-1.017,0l-1.439,1.439a.719.719,0,1,0,1.017,1.017l1.439-1.439A.719.719,0,0,0,393.844,30.2Z" transform="translate(-391.178 -29.991)"/></g></g></svg>