<svg xmlns="http://www.w3.org/2000/svg" width="11.065" height="9.059" viewBox="0 0 11.065 9.059"><defs><style>.a{fill:#fff;}</style></defs><path class="a" d="M10.812,29.142a4.194,4.194,0,0,1-.535.195,2.366,2.366,0,0,0,.482-.847.178.178,0,0,0-.261-.208,4.212,4.212,0,0,1-1.245.492,2.376,2.376,0,0,0-4.038,1.7,2.423,2.423,0,0,0,.019.307A6.081,6.081,0,0,1,1.06,28.565a.179.179,0,0,0-.293.023,2.379,2.379,0,0,0,.244,2.734,2.012,2.012,0,0,1-.318-.142.178.178,0,0,0-.265.152c0,.011,0,.021,0,.032a2.384,2.384,0,0,0,1.163,2.043c-.06-.006-.121-.015-.181-.026a.178.178,0,0,0-.2.23A2.375,2.375,0,0,0,2.947,35.2,4.2,4.2,0,0,1,.7,35.843a4.3,4.3,0,0,1-.5-.029.178.178,0,0,0-.117.327,6.406,6.406,0,0,0,3.464,1.015,6.162,6.162,0,0,0,4.774-2.1,6.647,6.647,0,0,0,1.655-4.332c0-.065,0-.131,0-.2A4.618,4.618,0,0,0,11.033,29.4a.178.178,0,0,0-.221-.262Z" transform="translate(0.002 -28.097)"/></svg>