<?xml version="1.0" standalone="no"?><svg xmlns="http://www.w3.org/2000/svg" viewBox="0 0 1440 320"><path fill="#2A2273" fill-opacity="0.36" d="M0,128L16,133.3C32,139,64,149,96,176C128,203,160,245,192,256C224,267,256,245,288,218.7C320,192,352,160,384,165.3C416,171,448,213,480,208C512,203,544,149,576,117.3C608,85,640,75,672,85.3C704,96,736,128,768,133.3C800,139,832,117,864,112C896,107,928,117,960,138.7C992,160,1024,192,1056,197.3C1088,203,1120,181,1152,176C1184,171,1216,181,1248,160C1280,139,1312,85,1344,85.3C1376,85,1408,139,1424,165.3L1440,192L1440,320L1424,320C1408,320,1376,320,1344,320C1312,320,1280,320,1248,320C1216,320,1184,320,1152,320C1120,320,1088,320,1056,320C1024,320,992,320,960,320C928,320,896,320,864,320C832,320,800,320,768,320C736,320,704,320,672,320C640,320,608,320,576,320C544,320,512,320,480,320C448,320,416,320,384,320C352,320,320,320,288,320C256,320,224,320,192,320C160,320,128,320,96,320C64,320,32,320,16,320L0,320Z"></path></svg>