<svg xmlns="http://www.w3.org/2000/svg" width="24" height="24" viewBox="0 0 24 24"><defs><style>.a{fill:#fff;}</style></defs><g transform="translate(-0.162 -0.162)"><path class="a" d="M-428.088-2095.838a1.752,1.752,0,0,1-1.75-1.75v-7.5a1.752,1.752,0,0,1,1.75-1.75h12.5a1.752,1.752,0,0,1,1.75,1.75v7.5a1.752,1.752,0,0,1-1.75,1.75Zm-.25-9.249v7.5a.25.25,0,0,0,.25.25h12.5a.25.25,0,0,0,.25-.25v-7.5a.25.25,0,0,0-.25-.25h-12.5A.25.25,0,0,0-428.338-2105.087Zm-7.75,9.249a1.752,1.752,0,0,1-1.751-1.75v-20.5a1.752,1.752,0,0,1,1.751-1.75h2.5a1.752,1.752,0,0,1,1.75,1.75v20.5a1.752,1.752,0,0,1-1.75,1.75Zm-.25-22.25v20.5a.249.249,0,0,0,.25.249h2.5a.249.249,0,0,0,.25-.249v-20.5a.25.25,0,0,0-.25-.25h-2.5A.25.25,0,0,0-436.338-2118.088Zm8.25,9.25a1.753,1.753,0,0,1-1.75-1.75v-7.5a1.752,1.752,0,0,1,1.75-1.75h12.5a1.752,1.752,0,0,1,1.75,1.75v7.5a1.753,1.753,0,0,1-1.75,1.75Zm-.25-9.25v7.5a.25.25,0,0,0,.25.25h12.5a.25.25,0,0,0,.25-.25v-7.5a.25.25,0,0,0-.25-.25h-12.5A.25.25,0,0,0-428.338-2118.088Z" transform="translate(438 2120)"/></g></svg>